<svg id="Layer_5" enable-background="new 0 0 62 62" height="512" viewBox="0 0 62 62" width="512" xmlns="http://www.w3.org/2000/svg"><g><g><g><path d="m2.38 29.47c-.9-1.63-1.38-3.48-1.38-5.37 0-6.13 4.97-11.1 11.1-11.1h4.61c3.49 0 6.96-.67 10.2-1.96l.09-.04.56.99c1.13 1.97 1.99 4.07 2.57 6.24.57 2.18.87 4.43.87 6.69 0 1.66-.37 3.29-1.08 4.78-.52-.44-1.19-.7-1.92-.7h-1v-4h-3-6l-.74-.11c-1.71-.24-3.29-.9-4.63-1.89h-3.63c-2.21 0-4 1.79-4 4v2h-1c-.6 0-1.15.18-1.62.47z" fill="#b27946"/></g><g><path d="m17 47 3 3 1.7-5.56c1.25.68 2.37 1.57 3.3 2.62v13.94h-15-6v-6c0-4.57 2.55-8.54 6.3-10.56l1.7 5.56 3-3h1z" fill="#ef7385"/></g><g><path d="m21.7 44.44-1.7 5.56-3-3 2.14-3.57v-.01c.65.17 1.28.4 1.88.68.23.11.46.22.68.34z" fill="#ed5565"/></g><g><path d="m12.86 43.42v.01l2.14 3.57-3 3-1.7-5.56c.81-.44 1.66-.78 2.56-1.02z" fill="#ed5565"/></g><g><path d="m47 29v10h-6v-11.35c1.82.87 3.86 1.35 6 1.35z" fill="#b4dd7f"/></g><g><path d="m53 27.65v11.35h-6v-10c2.14 0 4.18-.48 6-1.35z" fill="#ef7385"/></g><g><path d="m25 43h36v18h-36z" fill="#e6e9ed"/></g><g><path d="m53 39-2.5 4-1.97 3.15c-.33.53-.91.85-1.53.85s-1.2-.32-1.53-.85l-1.97-3.15-2.5-4h6z" fill="#ccd1d9"/></g><g><path d="m29 47h8v6h-8z" fill="#fcd770"/></g><g><path d="m19.14 43.42v.01l-2.14 3.57h-1-1l-2.14-3.57v-.01c1-.28 2.05-.42 3.14-.42s2.14.14 3.14.42z" fill="#f0d0b4"/></g><g><path d="m29.92 29.7c-.52-.44-1.19-.7-1.92-.7h-1v-4h-3-6l-.74-.11c-1.71-.24-3.29-.9-4.63-1.89h-3.63c-2.21 0-4 1.79-4 4v2h-1c-.6 0-1.15.18-1.62.47-.83.54-1.38 1.47-1.38 2.53 0 .83.34 1.58.88 2.12s1.29.88 2.12.88h1l.06-.01c.49 4.5 4.3 8.01 8.94 8.01h2 2c4.64 0 8.45-3.51 8.94-8.01l.06.01h1c.83 0 1.58-.34 2.12-.88s.88-1.29.88-2.12c0-.93-.42-1.76-1.08-2.3z" fill="#f0d0b4"/></g><g><path d="m18 35h2c0 1.1-.45 2.1-1.17 2.83-.73.72-1.73 1.17-2.83 1.17-2.21 0-4-1.79-4-4h2z" fill="#ef7385"/></g><g><path d="m47 1c7.73 0 14 6.27 14 14 0 5.58-3.27 10.4-8 12.65-1.82.87-3.86 1.35-6 1.35s-4.18-.48-6-1.35c-4.73-2.25-8-7.07-8-12.65 0-7.73 6.27-14 14-14z" fill="#ffc729"/></g><g><circle cx="47" cy="15" fill="#fcd770" r="10"/></g></g><g><path d="m48 22v-2c1.654 0 3-1.346 3-3s-1.346-3-3-3h-2c-.551 0-1-.449-1-1s.449-1 1-1h2c.551 0 1 .449 1 1h2c0-1.654-1.346-3-3-3v-2h-2v2c-1.654 0-3 1.346-3 3s1.346 3 3 3h2c.551 0 1 .449 1 1s-.449 1-1 1h-2c-.551 0-1-.449-1-1h-2c0 1.654 1.346 3 3 3v2z"/><path d="m58 15c0-6.065-4.935-11-11-11s-11 4.935-11 11 4.935 11 11 11 11-4.935 11-11zm-20 0c0-4.962 4.038-9 9-9s9 4.038 9 9-4.038 9-9 9-9-4.038-9-9z"/><path d="m54 39.287v-11.031c4.752-2.52 8-7.513 8-13.256 0-8.271-6.729-15-15-15s-15 6.729-15 15c0 5.743 3.248 10.737 8 13.256v11.031l1.695 2.713h-17.695v2.772c-.735-.574-1.525-1.066-2.359-1.469 3.115-1.224 5.475-3.958 6.157-7.303h.202c2.206 0 4-1.794 4-4 0-.956-.351-1.824-.914-2.513.588-1.445.914-3.004.914-4.563 0-4.704-1.233-9.349-3.567-13.432l-.564-.988c-.247-.433-.864-.582-1.329-.396-3.14 1.255-6.447 1.892-9.829 1.892h-4.606c-6.675 0-12.105 5.43-12.105 12.104 0 1.761.411 3.5 1.151 5.095-.71.723-1.151 1.711-1.151 2.801 0 2.206 1.794 4 4 4h.202c.682 3.346 3.044 6.082 6.16 7.305-4.349 2.105-7.362 6.549-7.362 11.695v7h59v-20h-9.695zm-2.804.713-3.514 5.622c-.295.473-1.068.473-1.363 0l-3.515-5.622zm.804-2h-4v-8.051c1.395-.093 2.735-.375 4-.825zm-18-23c0-7.168 5.832-13 13-13s13 5.832 13 13-5.832 13-13 13-13-5.832-13-13zm12 14.949v8.051h-4v-8.875c1.265.449 2.605.732 4 .824zm-33.597 14.667 1.337 2.229-1.27 1.27-.959-3.148c.291-.13.589-.246.892-.351zm3.597-.616c.526 0 1.045.051 1.559.125l-1.125 1.875h-.867l-1.126-1.876c.51-.073 1.028-.124 1.559-.124zm3.598.614c.302.105.601.217.892.348l-.961 3.154-1.27-1.27zm8.402-10.614v-4c1.103 0 2 .897 2 2s-.897 2-2 2zm-26-2c0-1.103.897-2 2-2v4c-1.103 0-2-.897-2-2zm2-5v1c-.392 0-.764.074-1.122.18-.567-1.282-.878-2.67-.878-4.076 0-5.571 4.533-10.104 10.104-10.104h4.606c3.354 0 6.639-.582 9.846-1.759l.139.244c2.162 3.781 3.305 8.083 3.305 12.439 0 1.136-.198 2.276-.575 3.35-.444-.17-.921-.274-1.425-.274v-4h-3.931l-.667-.095c-3.485-.498-6.341-2.882-7.454-6.221l-1.897.633c.791 2.372 2.319 4.329 4.286 5.684h-.267l-.668-.095c-3.485-.498-6.341-2.882-7.454-6.221l-1.897.633c.458 1.375 1.161 2.618 2.053 3.684h-1.104c-2.757-.002-5 2.241-5 4.998zm10 15c-4.411 0-8-3.589-8-8v-7c0-1.654 1.346-3 3-3h3.296c1.408.975 3.048 1.631 4.824 1.884l.739.105 8.141.011v7.999c0 4.412-3.589 8.001-8.001 8.001zm-9 13c0-3.735 1.875-7.036 4.728-9.025l1.801 5.91 3.471-3.471v9.586h2v-9.586l3.471 3.471 1.8-5.907c.623.433 1.201.932 1.729 1.492v12.53h-13v-6h-2v6h-4zm55-11v16h-34v-16h16.945l1.677 2.683c.516.825 1.405 1.317 2.378 1.317s1.862-.492 2.378-1.317l1.677-2.683z"/><path d="m28 54h10v-8h-10zm2-6h6v4h-6z"/><path d="m28 56h2v2h-2z"/><path d="m32 56h2v2h-2z"/><path d="m36 56h2v2h-2z"/><path d="m40 50h12v2h-12z"/><path d="m54 50h4v2h-4z"/><path d="m50.654 54.877-.286.858c-.105.316-.63.316-.735 0l-.684-2.052-1.897.633.684 2.052c.325.977 1.235 1.632 2.264 1.632s1.939-.655 2.265-1.633l.286-.858c.102-.305.385-.509.705-.509.411 0 .744.333.744.743v1.257c0 1.103.897 2 2 2h2v-2h-2v-1.257c0-1.513-1.231-2.743-2.744-2.743-1.182 0-2.228.754-2.602 1.877z"/><path d="m21 35v-1h-10v1c0 2.757 2.243 5 5 5s5-2.243 5-5zm-5 3c-1.304 0-2.416-.836-2.829-2h5.657c-.412 1.164-1.525 2-2.828 2z"/><path d="m13 32h2c0-2.206-1.794-4-4-4s-4 1.794-4 4h2c0-1.103.897-2 2-2s2 .897 2 2z"/><path d="m21 30c1.103 0 2 .897 2 2h2c0-2.206-1.794-4-4-4s-4 1.794-4 4h2c0-1.103.896-2 2-2z"/></g></g></svg>