<svg id="Layer_1" enable-background="new 0 0 128 128" height="512" viewBox="0 0 128 128" width="512" xmlns="http://www.w3.org/2000/svg"><path d="m80.4 91.4v-13.5h-8.8c-.7-3-1.9-5.8-3.5-8.4l6.2-6.2-9.6-9.6-6.2 6.2c-2.6-1.6-5.4-2.8-8.4-3.5v-8.8h-13.5v8.8c-3 .7-5.8 1.9-8.4 3.5l-6.2-6.2-9.6 9.6 6.2 6.2c-1.6 2.6-2.8 5.4-3.5 8.4h-8.8v13.6h8.8c.7 3 1.9 5.8 3.5 8.4l-6.2 6.2 9.6 9.6 6.2-6.2c2.6 1.6 5.4 2.8 8.4 3.5v8.8h13.6v-8.8c3-.7 5.8-1.9 8.4-3.5l6.2 6.2 9.6-9.6-6.2-6.2c1.6-2.6 2.8-5.4 3.5-8.4zm-37.1 9c-8.7 0-15.8-7.1-15.8-15.8s7.1-15.8 15.8-15.8 15.8 7.1 15.8 15.8c0 8.8-7.1 15.8-15.8 15.8z" fill="#ff6100"/><path d="m49 84.7c0 3.1-2.5 5.7-5.7 5.7s-5.7-2.5-5.7-5.7c0-3.1 2.5-5.7 5.7-5.7 3.2 0 5.7 2.5 5.7 5.7z" fill="#36cef4"/><path d="m121.7 36.7v-9.4h-6.1c-.5-2.1-1.3-4-2.4-5.8l4.3-4.3-6.6-6.6-4.3 4.3c-1.8-1.1-3.8-1.9-5.8-2.4v-6.2h-9.4v6.1c-2.1.5-4 1.3-5.8 2.4l-4.3-4.3-6.6 6.6 4.3 4.3c-1.1 1.8-1.9 3.8-2.4 5.8h-6.1v9.4h6.1c.5 2.1 1.3 4 2.4 5.8l-4.3 4.3 6.6 6.6 4.3-4.3c1.8 1.1 3.8 1.9 5.8 2.4v6.1h9.4v-6.1c2.1-.5 4-1.3 5.8-2.4l4.3 4.3 6.6-6.6-4.3-4.3c1.1-1.8 1.9-3.8 2.4-5.8h6.1zm-25.7 5.5c-5.6 0-10.2-4.6-10.2-10.2s4.6-10.2 10.2-10.2 10.2 4.6 10.2 10.2c0 5.6-4.5 10.2-10.2 10.2z" fill="#36cef4"/><path d="m4.6 82.3v-4.5c0-1 .8-1.8 1.8-1.8s1.8.8 1.8 1.8v4.5c0 1-.8 1.8-1.8 1.8s-1.8-.8-1.8-1.8zm75.8-6.2h-7.4c-.6-2.2-1.5-4.4-2.7-6.4l5.2-5.2c.7-.7.7-1.8 0-2.5l-9.5-9.6c-.7-.7-1.8-.7-2.5 0l-5.2 5.2c-2-1.1-4.2-2-6.4-2.7v-7.4c0-1-.8-1.8-1.8-1.8h-13.5c-1 0-1.8.8-1.8 1.8v7.5c-2.2.6-4.4 1.5-6.4 2.6l-5.3-5.3c-.7-.7-1.8-.7-2.5 0l-9.5 9.7c-.7.7-.7 1.8 0 2.5l5.3 5.3c-1.3 2.4-2.4 5-3 7.7-.2.9.4 1.9 1.4 2 .9.2 1.8-.4 2-1.2.7-2.8 1.8-5.5 3.3-7.9.4-.7.3-1.6-.3-2.2l-5-5 7.1-7.1 5 5c.6.6 1.5.7 2.2.3 2.4-1.5 5.1-2.6 7.9-3.3.8-.2 1.3-.9 1.3-1.7v-7h10.1v7c0 .8.6 1.5 1.3 1.7 2.8.7 5.5 1.8 7.9 3.3.7.4 1.6.3 2.2-.3l5-5 7.1 7.1-5 5c-.6.6-.7 1.5-.3 2.2 1.5 2.4 2.6 5.1 3.3 7.9.2.8.9 1.3 1.7 1.3h7v10.1h-7c-.8 0-1.5.6-1.7 1.3-.7 2.8-1.8 5.5-3.3 7.9-.4.7-.3 1.6.3 2.2l5 5-7.1 7.1-5-5c-.6-.6-1.5-.7-2.2-.3-2.4 1.5-5.1 2.6-7.9 3.3-.8.2-1.3.9-1.3 1.7v7h-10.1v-7c0-.8-.6-1.5-1.3-1.7-2.8-.7-5.5-1.8-7.9-3.3-.7-.4-1.6-.3-2.2.3l-5 5-7.1-7.1 5-5c.6-.6.7-1.5.3-2.2-1.5-2.4-2.6-5.1-3.3-7.9-.2-.8-.9-1.3-1.7-1.3h-8.8c-1 0-1.8.8-1.8 1.8s.8 1.8 1.8 1.8h7.4c.6 2.2 1.5 4.4 2.7 6.4l-5.2 5.2c-.7.7-.7 1.8 0 2.5l9.6 9.6c.7.7 1.8.7 2.5 0l5.2-5.2c2 1.1 4.2 2 6.4 2.7v7.4c0 1 .8 1.8 1.8 1.8h13.6c1 0 1.8-.8 1.8-1.8v-7.4c2.2-.6 4.4-1.5 6.4-2.6l5.3 5.3c.7.7 1.8.7 2.5 0l9.6-9.6c.7-.7.7-1.8 0-2.5l-5.3-5.3c1.1-2 2-4.2 2.6-6.4h7.4c1 0 1.7-.8 1.8-1.7v-13.8c-.3-1-1.1-1.8-2-1.8zm-54.6 8.6c0-9.7 7.8-17.5 17.5-17.5s17.5 7.8 17.5 17.5-7.8 17.5-17.5 17.5c-9.6 0-17.5-7.9-17.5-17.5zm15.8 13.8v-6.7c-2.7-.7-4.8-2.8-5.5-5.5h-6.7c.9 6.4 5.9 11.4 12.2 12.2zm-2.2-13.8c0 2.2 1.8 3.9 3.9 3.9s3.9-1.8 3.9-3.9-1.8-3.9-3.9-3.9c-2.1-.1-3.9 1.7-3.9 3.9zm17.8 1.7h-6.7c-.7 2.7-2.8 4.8-5.5 5.5v6.7c6.4-.9 11.4-5.9 12.2-12.2zm-12.1-15.6v6.7c2.7.7 4.8 2.8 5.5 5.5h6.7c-.9-6.4-5.9-11.4-12.2-12.2zm-15.6 12.1h6.7c.7-2.7 2.8-4.8 5.5-5.5v-6.7c-6.4.9-11.4 5.9-12.2 12.2zm93.9-55.6v9.4c0 1-.8 1.8-1.8 1.8h-4.7c-.4 1.3-.9 2.6-1.6 3.8l3.4 3.4c.7.7.7 1.8 0 2.5l-6.6 6.6c-.7.7-1.8.7-2.5 0l-3.4-3.4c-1.2.6-2.5 1.2-3.8 1.6v4.7c0 1-.8 1.7-1.7 1.8h-9.4c-1 0-1.8-.8-1.8-1.8v-4.7c-1.3-.4-2.6-.9-3.8-1.6l-3.4 3.4c-.7.7-1.8.7-2.5 0l-6.6-6.6c-.7-.7-.7-1.8 0-2.5l3.4-3.4c-.6-1.2-1.2-2.5-1.6-3.8h-4.7c-1 0-1.7-.8-1.8-1.8v-9.4c0-1 .8-1.8 1.8-1.8h4.7c.4-1.3.9-2.6 1.6-3.8l-3.4-3.4c-.7-.7-.7-1.8 0-2.5l6.6-6.6c.7-.7 1.8-.7 2.5 0l3.4 3.4c1.2-.6 2.5-1.2 3.8-1.6v-4.7c0-1 .8-1.8 1.8-1.8h9.4c1 0 1.7.8 1.8 1.7v4.8c1.3.4 2.6.9 3.8 1.6l3.4-3.4c.7-.7 1.8-.7 2.5 0l6.6 6.6c.7.7.7 1.8 0 2.5l-3.4 3.4c.6 1.2 1.2 2.5 1.6 3.8h4.7c1 0 1.7.8 1.7 1.8zm-3.5 1.7h-4.3c-.8 0-1.5-.6-1.7-1.3-.4-1.9-1.2-3.7-2.2-5.3-.4-.7-.3-1.6.3-2.2l3.1-3.1-4.2-4.2-3.1 3.1c-.6.6-1.5.7-2.2.3-1.6-1-3.4-1.8-5.3-2.2-.8-.2-1.3-.9-1.3-1.7v-4.3h-5.9v4.3c0 .8-.6 1.5-1.3 1.7-1.9.5-3.7 1.2-5.3 2.2-.7.4-1.6.3-2.2-.3l-3.1-3-4.2 4.2 3.1 3.1c.6.6.7 1.5.3 2.2-1 1.6-1.8 3.4-2.2 5.3-.2.8-.9 1.3-1.7 1.3h-4.3v5.9h4.3c.8 0 1.5.6 1.7 1.3.4 1.9 1.2 3.7 2.2 5.3.4.7.3 1.6-.3 2.2l-3.1 3 4.2 4.2 3.1-3.1c.6-.6 1.5-.7 2.2-.3 1.6 1 3.4 1.8 5.3 2.2.8.2 1.3.9 1.3 1.7v4.3h5.9v-4.3c0-.8.6-1.5 1.3-1.7 1.9-.4 3.7-1.2 5.3-2.2.7-.4 1.6-.3 2.2.3l3.1 3.1 4.2-4.2-3.1-3.1c-.6-.6-.7-1.5-.3-2.2 1-1.6 1.8-3.4 2.2-5.3.2-.8.9-1.3 1.7-1.3h4.3zm-23.9-9c-6.6.1-11.9 5.5-11.9 12.1.1 6.9 6 12.2 12.6 11.9 1 0 1.7-.8 1.7-1.8s-.9-1.8-1.9-1.7c-5 .3-9-3.7-9-8.5 0-4.7 3.8-8.5 8.5-8.5s8.5 3.8 8.5 8.5c0 1.7-.5 3.4-1.5 4.8-.6.8-.4 1.9.4 2.4.8.6 1.9.4 2.5-.4 3.8-5.4 2.4-12.9-3-16.7-2.1-1.3-4.4-2.1-6.9-2.1z" fill="#5d0000"/></svg>