<svg id="Capa_1" enable-background="new 0 0 512 512" height="512" viewBox="0 0 512 512" width="512" xmlns="http://www.w3.org/2000/svg"><g><path d="m256 22c-135.31 0-245 109.69-245 245 0 54.613 17.877 105.046 48.087 145.784l3.921 1h371.992v-4.784c0-5.514-4.486-10-10-10h-22.726v-19.634c0-1.908-.526-3.756-1.509-5.366h45.365v-157h8.571c17.881 0 32.429 14.547 32.429 32.429v95.946l1 .165c8.343-24.655 12.87-51.068 12.87-78.54 0-135.31-109.69-245-245-245z" fill="#fed402"/><g><path d="m445.131 216h-143.131v124c0 4.962-4.037 9-9 9h-73.891v21h38.8c4.842 0 8.837 3.693 9.318 8.41.032.314.048.633.048.956v19.634 1h70.357l-1.632-1v-19.634c0-5.164 4.201-9.366 9.366-9.366h46.542c3.168 0 5.969 1.585 7.665 4h46.558v-149.521z" fill="#0182fc"/></g><path d="m214 349h43v21h-43z" fill="#0172fb"/><path d="m454.702 216h-9.571v157h-46.373c1.556 1.673 2.516 3.907 2.516 6.366v20.634h23.726c4.963 0 9 4.038 9 9v4.784h14.992l3.921-1c15.014-20.246 26.977-42.887 35.218-67.245v-96.11c0-18.462-14.966-33.429-33.429-33.429z" fill="#0172fb"/><g><path d="m402.275 400v-20.634c0-5.725-4.641-10.366-10.366-10.366h-46.543c-5.725 0-10.366 4.641-10.366 10.366v20.634z" fill="#fed2a4"/></g><g><path d="m356 399v-19.634c0-5.725 4.641-10.366 10.366-10.366h-21c-5.725 0-10.366 4.641-10.366 10.366v19.634z" fill="#ffbd86"/></g><g><path d="m237 390c4.962 0 9 4.038 9 9v1h22.275v-20.634c0-5.725-4.641-10.366-10.366-10.366h-46.543c-5.725 0-10.366 4.641-10.366 10.366v10.634z" fill="#fed2a4"/></g><g><path d="m222 389v-9.634c0-5.725 4.641-10.366 10.366-10.366h-21c-5.725 0-10.366 4.641-10.366 10.366v9.634z" fill="#ffbd86"/></g><path d="m425 399h-179v14.784h189v-4.784c0-5.523-4.477-10-10-10z" fill="#fff"/><path d="m247 399v14.784h24v-4.784c0-5.523 4.477-10 10-10z" fill="#f3f0ff"/><path d="m47 349c-4.962 0-9-4.038-9-9v-140c0-4.962 4.038-9 9-9h246c4.963 0 9 4.038 9 9v140c0 4.962-4.037 9-9 9z" fill="#a79bc6"/><path d="m395.193 202.459c-7 4.051-15.114 6.383-23.767 6.383h-48.611c-7.46 0-14.523-1.729-20.814-4.8v50.328l42.976-20.354c1.357-.643 2.931-.641 4.287.003l47.895 22.776c3.686 1.753 7.805-1.41 7.064-5.423z" fill="#0172fb"/><path d="m371.426 208.841h-48.611c-1.618 0-3.216-.083-4.793-.241l24.768 42.9c1.925 3.333 6.736 3.333 8.66 0l24.768-42.9c-1.576.159-3.175.241-4.792.241z" fill="#f6a96c"/><path d="m359.273 0h-24.306c-44.746 0-81.02 36.274-81.02 81.02v27.114c3.541-2.173 7.703-3.428 12.153-3.428h9.102v-6.671c0-21.786 17.724-39.51 39.51-39.51h64.815c21.786 0 39.511 17.724 39.511 39.51v6.671h9.102c4.45 0 8.612 1.256 12.153 3.428v-27.114c0-44.746-36.274-81.02-81.02-81.02z" fill="#a79bc6"/><g><path d="m265.29 103.726v-13.23c0-26.81 15.585-49.977 38.188-60.945 14.194-17.22 35.347-28.49 59.168-29.466-1.12-.046-2.242-.085-3.373-.085h-24.306c-44.746 0-81.02 36.274-81.02 81.02v25.946c3.357-1.943 7.219-3.105 11.343-3.24z" fill="#9182b0"/></g><path d="m361.245 22.791h-28.25c-37.392 0-67.705 30.313-67.705 67.705v14.23c.27-.009.539-.021.811-.021h9.102v-6.671c0-21.786 17.724-39.51 39.51-39.51h64.815c21.786 0 39.511 17.724 39.511 39.51v6.671h9.102c.272 0 .541.011.81.021v-14.23c-.001-37.392-30.314-67.705-67.706-67.705z" fill="#bb5d4c"/><path d="m428.14 103.706h-9.102v57.524c0 4.396-.611 8.649-1.732 12.693h9.815l6.879 4.077 8.121-8.507c-.001 0-.001.001-.002.001 6.244-4.399 10.326-11.659 10.326-19.877v-21.605c.001-13.424-10.882-24.306-24.305-24.306z" fill="#7a6d98"/><path d="m266.1 103.706h8.102v-5.671c0-22.373 18.137-40.51 40.51-40.51h.853c10.543-18.866 29.847-32.171 52.41-34.398-2.214-.219-4.458-.335-6.73-.335h-28.25c-37.392 0-67.705 30.313-67.705 67.705v13.23c.27-.01.538-.021.81-.021z" fill="#a44f3e"/><g><path d="m275.202 161.229v-57.524h-9.102c-13.424 0-24.306 10.882-24.306 24.306v21.605c0 13.424 10.882 24.306 24.306 24.306h10.834c-1.121-4.043-1.732-8.297-1.732-12.693z" fill="#7a6d98"/></g><path d="m275.813 173.661c-11.832-1.638-20.952-11.761-20.952-24.044v-21.605c0-11.719 8.304-21.473 19.342-23.768v-.538h-8.103c-13.424 0-24.306 10.882-24.306 24.306v21.605c0 13.424 10.882 24.306 24.306 24.306h9.787c-.024-.088-.051-.174-.074-.262z" fill="#685e87"/><g><path d="m371.426 209.841h-48.612c-26.848 0-48.612-21.764-48.612-48.612v-63.195c0-22.373 18.137-40.51 40.51-40.51h64.816c22.373 0 40.51 18.137 40.51 40.51v63.195c0 26.848-21.765 48.612-48.612 48.612z" fill="#fed2a4"/></g><path d="m329.81 203.036c-14.254-8.474-23.81-24.021-23.81-41.806v-63.196c0-22.373 18.137-40.51 40.51-40.51h-31.798c-22.373 0-40.51 18.137-40.51 40.51v63.195c0 10.768 3.507 20.714 9.434 28.77h9.364c5.523 0 10 4.477 10 10v5.618c6.053 2.706 12.755 4.224 19.814 4.224h3.815c.395-2.588 1.526-4.928 3.181-6.805z" fill="#ffbd86"/><g><g><circle cx="311.927" cy="116.669" fill="#ca6e59" r="12.153"/></g><g><circle cx="382.313" cy="116.669" fill="#ca6e59" r="12.153"/></g></g><g><path d="m346.304 153.336c-1.51 0-3.032-.454-4.354-1.397l-11.343-8.102c-3.037-2.169-4.017-6.242-2.299-9.555l11.343-21.875c1.908-3.678 6.435-5.112 10.11-3.206 3.678 1.907 5.112 6.434 3.206 10.11l-8.349 16.101 6.05 4.321c3.37 2.408 4.151 7.092 1.743 10.462-1.462 2.05-3.767 3.141-6.107 3.141z" fill="#ca6e59"/></g><g><path d="m351.576 189.5h-8.912c-16.645 0-30.186-13.541-30.186-30.186 0-4.142 3.357-7.5 7.5-7.5s7.5 3.358 7.5 7.5c0 8.374 6.813 15.186 15.186 15.186h8.912c8.373 0 15.186-6.812 15.186-15.186 0-4.142 3.357-7.5 7.5-7.5s7.5 3.358 7.5 7.5c0 16.645-13.541 30.186-30.186 30.186z" fill="#ca6e59"/></g><g><path d="m293 350h-246c-5.523 0-10-4.477-10-10v-140c0-5.523 4.477-10 10-10h246c5.523 0 10 4.477 10 10v140c0 5.523-4.477 10-10 10z" fill="#a79bc6"/></g><path d="m70 340v-140c0-5.523 4.477-10 10-10h-33c-5.523 0-10 4.477-10 10v140c0 5.523 4.477 10 10 10h33c-5.523 0-10-4.477-10-10z" fill="#9182b0"/><g><path d="m222.152 104.617c0-40.63-33.422-73.454-74.273-72.479-38.301.914-69.588 32.034-70.696 70.329-.963 33.302 20.54 61.722 50.47 71.243 2.714.863 4.97 2.772 6.171 5.354l13.108 28.2c1.076 2.314 4.365 2.314 5.441 0l13.108-28.199c1.167-2.511 3.313-4.455 5.954-5.286 29.395-9.248 50.717-36.712 50.717-69.162z" fill="#fd4755"/></g><g><path d="m154.672 168.948c-1.2-2.582-3.457-4.491-6.171-5.354-29.93-9.521-51.433-37.942-50.47-71.243.683-23.592 12.828-44.447 31.001-57.208-29.233 8.744-50.93 35.556-51.849 67.325-.964 33.302 20.54 61.722 50.47 71.243 2.714.863 4.97 2.772 6.171 5.354l13.108 28.2c1.076 2.314 4.365 2.314 5.441 0l10.055-21.632z" fill="#fb2b3a"/></g><path d="m211.667 247h-83.333c-2.761 0-5 2.239-5 5v46c0 2.761 2.239 5 5 5h20.666v-28c0-2.206 1.794-4 4-4h34c2.206 0 4 1.794 4 4v28h20.667c2.761 0 5-2.239 5-5v-46c0-2.761-2.239-5-5-5z" fill="#9182b0"/><path d="m192 390v-115c0-2.761-2.239-5-5-5h-34c-2.761 0-5 2.239-5 5v115z" fill="#7a6d98"/><path d="m173 270h-20c-2.761 0-5 2.239-5 5v115h20v-115c0-2.761 2.239-5 5-5z" fill="#685e87"/><path d="m247 413.784v-14.784c0-5.523-4.477-10-10-10h-134c-5.523 0-10 4.477-10 10v14.784z" fill="#a79bc6"/><path d="m133 412.784v-13.784c0-5.523 4.477-10 10-10h-40c-5.523 0-10 4.477-10 10v13.784z" fill="#9182b0"/><g><path d="m99.645 450-5.392 1c43.152 37.964 99.755 61 161.746 61s118.595-23.036 161.746-61l-5.392-1z" fill="#f6a96c"/></g><g><path d="m59.087 412.784c10.347 13.952 22.143 26.762 35.163 38.216h323.5c13.02-11.454 24.816-24.264 35.163-38.216z" fill="#d88a55"/></g><path d="m159.741 426.011c-4.585-4.24-9.005-8.655-13.259-13.227h-87.395c10.347 13.952 22.143 26.762 35.163 38.216h323.5c7.461-6.564 14.505-13.586 21.119-21h-268.929c-3.78 0-7.424-1.423-10.199-3.989z" fill="#c57a44"/><g fill="#fff"><path d="m146.622 93.964c0-10.117-8.23-18.347-18.347-18.347h-15.595c-4.142 0-7.5 3.358-7.5 7.5s3.358 7.5 7.5 7.5h15.596c1.845 0 3.347 1.501 3.347 3.347 0 .862-.327 1.681-.92 2.306l-23.458 24.68c-2.066 2.174-2.639 5.369-1.456 8.125 1.183 2.755 3.893 4.542 6.892 4.542h26.442c4.142 0 7.5-3.358 7.5-7.5s-3.358-7.5-7.5-7.5h-8.966l11.418-12.014c3.255-3.425 5.047-7.913 5.047-12.639z"/><path d="m186.625 75.617c-4.142 0-7.5 3.358-7.5 7.5v16.354h-11.442v-16.354c0-4.142-3.358-7.5-7.5-7.5s-7.5 3.358-7.5 7.5v23.854c0 4.142 3.358 7.5 7.5 7.5h18.942v11.646c0 4.142 3.358 7.5 7.5 7.5s7.5-3.358 7.5-7.5v-43c0-4.142-3.358-7.5-7.5-7.5z"/></g><path d="m428.14 173.923h-1.019v16.474c0 7.033-5.722 12.755-12.755 12.755h-51.188c2.225 2.238 3.602 5.318 3.602 8.715 0 2.296-.64 4.44-1.735 6.285h49.321c15.304 0 27.755-12.451 27.755-27.755v-20.903c-3.955 2.786-8.775 4.429-13.981 4.429z" fill="#9182b0"/><g><path d="m354.412 225.235h-14.584c-7.383 0-13.368-5.985-13.368-13.368 0-7.383 5.985-13.368 13.368-13.368h14.584c7.383 0 13.368 5.985 13.368 13.368 0 7.383-5.985 13.368-13.368 13.368z" fill="#7a6d98"/></g><path d="m340.68 211.867c0-7.383 5.985-13.368 13.368-13.368h-14.22c-7.383 0-13.368 5.985-13.368 13.368s5.985 13.368 13.368 13.368h14.22c-7.383 0-13.368-5.985-13.368-13.368z" fill="#685e87"/></g></svg>