<svg id="Layer_1" enable-background="new 0 0 512 512" height="512" viewBox="0 0 512 512" width="512" xmlns="http://www.w3.org/2000/svg"><path d="m384.6 299.4h-257.2c-.8 1.3-1.6 2.7-2.4 4.1-4 7.4-7.2 15.4-9.3 23.6-2.2 8.5-3.3 17.2-3.3 26 0 30.2 13.1 58.8 35.9 78.6 13.8 12.1 21.7 29.6 21.6 48v7.3c0 7.8 6.3 14.2 14.2 14.2h26c7.8 0 14.2-6.4 14.2-14.2 0-7.9 6.4-14.2 14.2-14.2h25.2c7.8 0 14.2 6.3 14.2 14.2 0 7.8 6.4 14.2 14.2 14.2h26c7.8 0 14.2-6.4 14.2-14.2 0-19.9 9.4-38.7 25.4-50.6 4-3 7.7-6.2 11.2-9.7 33.9-34 40.3-86.4 15.7-127.3z" fill="#e2b6aa"/><path d="m200 486.8v-7.3c.1-18.4-7.8-35.9-21.6-48-22.8-19.7-35.9-48.4-35.9-78.6 0-8.8 1.1-17.5 3.3-26 2.1-8.2 5.2-16.1 9.3-23.6.7-1.4 1.5-2.8 2.4-4.1h-30c-.8 1.3-1.6 2.7-2.4 4.1-4 7.4-7.2 15.4-9.3 23.6-2.2 8.5-3.3 17.2-3.3 26 0 30.2 13.1 58.8 35.9 78.6 13.8 12.1 21.7 29.6 21.6 48v7.3c0 7.8 6.3 14.2 14.2 14.2h26c.7 0 1.3-.1 2-.2-7-.9-12.2-6.9-12.2-14z" fill="#c69e95"/><path d="m256 11c44.6 0 80.7 36.1 80.7 80.7s-36.1 80.7-80.7 80.7-80.7-36.1-80.7-80.7c0-21.4 8.5-41.9 23.6-57.1 15.2-15.1 35.7-23.6 57.1-23.6z" fill="#f2cd7d"/><path d="m392.6 259.5-.8.8c-6.3 7.5-11.5 22.4-11.5 22.4 5.6 17 7 35.1 4.1 52.7-8.6 53-55.3 91.5-109 91.5h-39c-53.7 0-100.4-38.5-109-91.5-2.9-17.6-1.5-35.7 4.1-52.7 0 0-5.1-14.9-11.4-22.4l-.8-.8c3.4-3.6 6.4-7.7 8.7-12.1l29.6-55.3.3.2c7.4 11 15.4 32.6 15.4 32.6 48.8-36.3 115.6-36.6 164.6-.6 0 0 8.6-21.1 16.1-32l.3-.2 29.5 55.3c2.4 4.4 5.4 8.5 8.8 12.1z" fill="#f8d2c5"/><g fill="#e2b6aa"><path d="m303.8 336.7c-26.4-26.3-69.1-26.3-95.4 0-4.2 4.2-5.1 10.4-2.6 15.4 1 2 2.6 3.6 4.4 4.8l13.6 8.8c19.6 12.7 44.9 12.7 64.6 0l13.6-8.7c1.9-1.2 3.4-2.8 4.4-4.8 2.5-5.1 1.6-11.3-2.6-15.5z"/><path d="m417.4 264.1c-1.2-12.2-2.9-28.9-3.8-38.7-.5-4.7-4.3-8.3-9.1-8.4h-.3c-12.1-.3-23.7-4.5-33.3-12l-16.7-13v.1l29.5 55.3c2.4 4.4 5.3 8.5 8.7 12.1 2.6 2.8 5.5 5.3 8.7 7.5l5.2 3.6c3.2 2.2 7.5 1.4 9.7-1.7 1.1-1.5 1.6-3.1 1.4-4.8z"/><path d="m157.7 192.1-29.6 55.3c-4.2 7.8-10.1 14.5-17.4 19.6l-5.2 3.6c-3.2 2.2-7.5 1.4-9.7-1.7-1-1.4-1.4-3-1.2-4.7 1.2-12.2 2.9-28.9 3.8-38.7.4-4.7 4.3-8.3 9-8.4h.3c12.1-.3 23.7-4.5 33.3-12z"/></g><circle cx="256" cy="91.7" fill="#fadf4a" r="52.2"/><path d="m157.5 335.3c-1.9-11.9-1.9-24.1 0-36v-.2c1.6-9.5 5.4-18.5 11.1-26.3l28.2-39.1c5-6.9 11.3-12.7 18.5-17.1 17-10.1 36-16.4 55.6-18.4-5-.5-10-.8-15-.8-29.8-.2-58.9 9.5-82.7 27.4 0 0-7.9-21.6-15.4-32.6l-.3-.2-29.6 55.3c-2.4 4.4-5.3 8.5-8.7 12.1l.8.8c6.3 7.5 11.4 22.4 11.4 22.4-1.8 5.4-3.1 11-4.1 16.7-2 11.9-2 24.1 0 36 8.6 53 55.3 91.5 109 91.5h30c-53.5.1-100.2-38.4-108.8-91.5z" fill="#e5bdb3"/><path d="m233.9 91.7c0-23 15.1-43.3 37.2-50-27.6-8.3-56.7 7.4-65 35s7.4 56.7 35 65c9.8 2.9 20.2 2.9 30 0-22.1-6.7-37.2-27-37.2-50z" fill="#ffe67b"/><g fill="#284268"><path d="m423.4 263.5c-1-9.8-2.8-28-3.8-38.7-.7-7.7-7.1-13.6-14.9-13.8-.1 0-.1 0-.2 0h-.2c-10.9-.3-21.1-4-29.7-10.7l-16.7-13c-2.2-1.7-5.4-1.7-7.6.1-.5.4-1 .9-1.4 1.4-5 7.4-10.4 18.9-13.7 26.2-23-15.3-50.9-23.7-79.3-23.7-28.7 0-56.8 8.5-79.9 24-3.1-7.5-8.3-19.1-13.3-26.5-.3-.6-.8-1.1-1.3-1.5-2.2-1.8-5.3-1.9-7.6-.1l-16.6 13c-8.6 6.7-18.8 10.4-29.7 10.7h-.2c-.1 0-.1 0-.2 0-7.7.2-14.1 6.2-14.8 13.8l-3.8 38.7c-.5 5.1 1.9 9.9 6.3 12.5 2.1 1.2 4.3 1.8 6.6 1.8 2.6 0 5.2-.8 7.4-2.3l5.2-3.6c1.5-1.1 3-2.2 4.4-3.4 2.8 4.8 5.3 10.7 6.7 14.3-1.4 4.6-2.5 9.3-3.4 14.1-.8 1.3-1.5 2.5-2.1 3.7-4.3 7.9-7.6 16.3-9.8 24.9-2.3 9-3.5 18.2-3.5 27.5 0 31.9 13.8 62.2 38 83.1 12.4 10.8 19.5 26.6 19.5 43.5v7.3c0 11.1 9.1 20.2 20.2 20.2h26c5.4 0 10.5-2.1 14.3-5.9s5.9-8.9 5.9-14.3c0-4.5 3.7-8.2 8.2-8.2h25.2c2.2 0 4.2.9 5.8 2.4 1.6 1.6 2.4 3.6 2.4 5.8 0 11.1 9.1 20.2 20.2 20.2h26c5.4 0 10.5-2.1 14.3-5.9s5.9-8.9 5.9-14.3c0-17.9 8.6-35 23-45.8 4.2-3.1 8.2-6.6 11.9-10.3 20.8-20.8 32.2-48.4 32.2-77.7 0-19.8-5.3-39.1-15.4-56.1-.8-4.8-2-9.5-3.4-14.1 1.4-3.6 3.9-9.5 6.7-14.3 1.4 1.2 2.9 2.3 4.4 3.4l5.2 3.6c2.2 1.6 4.8 2.3 7.4 2.3 2.3 0 4.5-.6 6.6-1.8 4.7-2.6 7.1-7.4 6.6-12.5zm-265.4-59.2c3.3 6.5 6.3 13.7 8 18.2 1.1 2.8 3.5 4.9 6.4 5.8 2.9.8 5.9.3 8.4-1.4 21.5-15.1 48.1-23.4 75.3-23.4 26.9 0 53.3 8.1 74.7 23 2.4 1.7 5.4 2.2 8.2 1.4h.1c2.9-.8 5.2-2.8 6.4-5.5 1.9-4.4 5.2-11.6 8.6-18.2l24.6 46c1.8 3.3 3.9 6.5 6.2 9.5-5.7 8.5-9.9 20.4-10.1 21-.4 1.2-.4 2.6 0 3.8 1.7 5.1 3 10.5 3.9 15.8.9 5.6 1.4 11.4 1.4 17.1 0 5.6-.5 11.4-1.4 17-3.9 24.1-16.5 46.2-35.5 62-18.9 15.8-42.9 24.5-67.6 24.5h-39c-24.7 0-48.7-8.7-67.6-24.5-19-15.9-31.6-37.9-35.5-62-.9-5.6-1.4-11.3-1.4-17s.5-11.5 1.4-17.1c.9-5.3 2.2-10.6 3.9-15.8.4-1.2.4-2.6 0-3.8-.2-.6-4.4-12.5-10.1-21 2.4-3 4.5-6.1 6.2-9.5zm-35.2 40.3c-2.1 3.9-4.7 7.6-7.8 10.8-2.4 2.5-5 4.7-7.8 6.7l-4.4 3.1c-.5.3-1.1.3-1.5.1-.5-.3-.7-.8-.7-1.4l3.7-37.8c.2-1.6 1.5-2.9 3.2-3h.2.2c11.3-.3 22-3.6 31.5-9.5zm267.6 91.7c.3-1.6.5-3.2.7-4.8 1.6 7 2.4 14.2 2.4 21.5 0 26.2-10.2 50.7-28.7 69.2-3.3 3.3-6.8 6.4-10.6 9.2-17.4 13-27.8 33.8-27.8 55.4 0 2.2-.9 4.3-2.4 5.8-1.6 1.6-3.6 2.4-5.8 2.4h-26c-4.5 0-8.2-3.7-8.2-8.2 0-5.4-2.1-10.5-5.9-14.3s-8.9-5.9-14.3-5.9h-25.2c-11.1 0-20.2 9.1-20.2 20.2 0 2.2-.9 4.3-2.4 5.8-1.6 1.6-3.6 2.4-5.8 2.4h-26c-4.5 0-8.2-3.7-8.2-8.2v-7.3c0-20.4-8.6-39.5-23.7-52.5-21.5-18.6-33.8-45.6-33.8-74 0-7.3.8-14.5 2.4-21.6.2 1.7.4 3.3.7 5 4.4 27 18.5 51.6 39.7 69.3 21.1 17.6 47.8 27.3 75.3 27.3h39c27.5 0 54.2-9.7 75.3-27.3 21.1-17.8 35.2-42.4 39.5-69.4zm20.3-71.1c-.5.3-1.1.3-1.5-.1l-4.4-3.1c-2.8-1.9-5.4-4.2-7.7-6.6-3.1-3.3-5.7-6.9-7.8-10.8l-16.6-31.1c9.4 5.9 20.2 9.2 31.5 9.5h.2.2c1.7.1 3 1.3 3.2 3 1 10.4 2.7 27.8 3.7 37.8-.1.6-.4 1.1-.8 1.4z"/><path d="m241.1 356.1c3.3 0 6-2.7 6-6v-7.2c0-3.3-2.7-6-6-6s-6 2.7-6 6v7.2c0 3.3 2.7 6 6 6z"/><path d="m270.9 356.1c3.3 0 6-2.7 6-6v-7.2c0-3.3-2.7-6-6-6s-6 2.7-6 6v7.2c0 3.3 2.7 6 6 6z"/><path d="m198.3 346.3c0 4.1 1.2 8 3.6 11.3 1.1 1.5 2.5 2.7 4 3.7l14.5 9.6c5.3 3.4 11 6 17 7.8s12.3 2.7 18.6 2.7c12.6 0 24.9-3.6 35.6-10.5l14.5-9.6c1.5-1 2.9-2.2 4-3.7 2.3-3.3 3.6-7.2 3.6-11.3 0-5.2-2-10.1-5.7-13.8-13.9-13.9-32.3-21.5-52-21.5-19.6 0-38.1 7.6-52 21.5-3.6 3.7-5.7 8.6-5.7 13.8zm14.2-5.3c11.6-11.6 27.1-18 43.5-18s31.9 6.4 43.5 18c1.4 1.4 2.2 3.3 2.2 5.3v.1c0 2.4-1.3 4.6-3.3 5.8l-13.3 8.6c-8.7 5.6-18.7 8.6-29.1 8.6-5.1 0-10.2-.7-15.2-2.2-4.9-1.4-9.6-3.6-13.9-6.4l-13.3-8.6c-2-1.3-3.3-3.5-3.3-5.8 0 0 0 0 0-.1 0-2 .8-3.9 2.2-5.3z"/><path d="m190.3 300c11.9 0 21.5-9.6 21.5-21.5 0-3.3-2.7-6-6-6s-6 2.7-6 6c0 5.2-4.3 9.5-9.5 9.5s-9.5-4.3-9.5-9.5c0-3.3-2.7-6-6-6s-6 2.7-6 6c0 11.8 9.7 21.5 21.5 21.5z"/><path d="m321.7 300c11.9 0 21.5-9.6 21.5-21.5 0-3.3-2.7-6-6-6s-6 2.7-6 6c0 5.2-4.3 9.5-9.5 9.5s-9.5-4.3-9.5-9.5c0-3.3-2.7-6-6-6s-6 2.7-6 6c0 11.8 9.6 21.5 21.5 21.5z"/><path d="m256 149.9c32.1 0 58.2-26.1 58.2-58.2s-26.1-58.1-58.2-58.1-58.2 26.1-58.2 58.2 26.1 58.1 58.2 58.1zm0-104.3c25.5 0 46.2 20.7 46.2 46.2s-20.7 46.2-46.2 46.2-46.2-20.7-46.2-46.2 20.8-46.2 46.2-46.2z"/><path d="m256.1 111.6c-.1 0-.2 0-.2 0-3.9 0-7-3.2-7-7.1 0-3.3-2.7-6-6-6s-6 2.7-6 6c0 8.4 5.5 15.6 13.1 18.1v2.8c0 3.3 2.7 6 6 6s6-2.7 6-6v-2.8c7.6-2.5 13.1-9.7 13.1-18.1 0-10.5-8.6-19.1-19.1-19.1-3.9 0-7.1-3.2-7.1-7.1s3.2-7.1 7.1-7.1 7.1 3.2 7.1 7.1c0 3.3 2.7 6 6 6s6-2.7 6-6c0-8.4-5.5-15.6-13.1-18.1v-2.2c0-3.3-2.7-6-6-6s-6 2.7-6 6v2.2c-7.6 2.5-13.1 9.7-13.1 18.1 0 10.5 8.6 19.1 19.1 19.1 3.9 0 7.1 3.2 7.1 7.1s-3.1 7.1-7 7.1z"/><path d="m256 178.4c15.6 0 30.9-4.2 44.3-12.1 21-12.5 35.8-33.3 40.7-57.1 1.2-5.7 1.8-11.6 1.8-17.5-.1-47.8-39-86.7-86.8-86.7s-86.7 38.9-86.7 86.7 38.9 86.7 86.7 86.7zm-72.3-92.7h-2.1c1.3-16.1 7.7-30.8 17.6-42.4l1.5 1.5c1.2 1.2 2.7 1.8 4.2 1.8s3.1-.6 4.2-1.8c2.3-2.3 2.3-6.1 0-8.5l-1.5-1.5c11.6-9.9 26.3-16.3 42.4-17.6v2.1c0 3.3 2.7 6 6 6s6-2.7 6-6v-2.1c16.1 1.3 30.8 7.7 42.4 17.6l-1.5 1.5c-2.3 2.3-2.3 6.1 0 8.5 1.2 1.2 2.7 1.8 4.2 1.8s3.1-.6 4.2-1.8l1.5-1.5c9.9 11.6 16.3 26.3 17.6 42.4h-2.1c-3.3 0-6 2.7-6 6s2.7 6 6 6h2.1c-.2 3.1-.6 6.1-1.3 9.1-2.5 12.4-8.2 23.8-16.3 33.3l-1.5-1.5c-2.3-2.3-6.1-2.3-8.5 0-2.3 2.3-2.3 6.1 0 8.5l1.5 1.5c-3.2 2.7-6.6 5.2-10.3 7.4-9.8 5.8-20.8 9.3-32.1 10.2v-2.1c0-3.3-2.7-6-6-6s-6 2.7-6 6v2.1c-16.1-1.3-30.8-7.7-42.4-17.6l1.5-1.5c2.3-2.3 2.3-6.1 0-8.5-2.3-2.3-6.1-2.3-8.5 0l-1.5 1.5c-9.9-11.6-16.3-26.3-17.6-42.4h2.1c3.3 0 6-2.7 6-6s-2.5-6-5.8-6z"/></g></svg>