<svg id="filled_outline" height="512" viewBox="0 0 512 512" width="512" xmlns="http://www.w3.org/2000/svg" data-name="filled outline"><path d="m57.66445 208a141.8228 141.8228 0 0 0 -1.66445 21.66516v.00007a141.83069 141.83069 0 0 0 9.45363 50.91421l30.54637 79.42056-72 104 56-16 56.51554-62.795a60.31979 60.31979 0 0 0 15.48446-40.3519 60.32005 60.32005 0 0 0 -2.54391-17.33278l-21.45609-71.52032 64 88-16 120 40-16 34.94036-104.82107a32 32 0 0 0 -4.04772-28.334l-62.89264-90.84493 8-16z" fill="#445496"/><path d="m176 464v24h72v-16l-32-24z" fill="#6d7eb3"/><path d="m407.01519 320a42.24617 42.24617 0 0 1 40.98481 32h40v48a16 16 0 0 1 -16 16h-16a49.75838 49.75838 0 0 1 -48.79211 40h-15.20789v32h-24l-13.71427-32h-84.57144l-13.71429 32h-24v-40l-7.2-9.6a84 84 0 0 1 -16.8-50.4v-.0001a67.99994 67.99994 0 0 1 67.99993-67.9999z" fill="#f0d9b4"/><path d="m301.66992 184.83008v16.31982h-33.21972l-26.81006-34.47-17.64014-22.6799-32 64h-134.34009a141.70643 141.70643 0 0 1 17.03-48.69995l29.18997-51.08005a55.99228 55.99228 0 0 1 48.62012-28.22h64.62012a39.9974 39.9974 0 0 1 34.48 19.72l23.6001 40.11987z" fill="#ffceb6"/><path d="m275.2002 139.83984-33.56006 26.84009-17.64014-22.67993-32 64h-134.34009a141.70643 141.70643 0 0 1 17.03-48.69995l29.18997-51.08005a55.99228 55.99228 0 0 1 48.62012-28.22h64.62012a39.9974 39.9974 0 0 1 34.48 19.72z" fill="#ed6445"/><path d="m24 464v24h80v-16l-24-24z" fill="#6d7eb3"/><path d="m200 120 8 40-16 16-16-16 8-40z" fill="#f7c04a"/><path d="m184 120-8-16 16-8 16 8-8 16z" fill="#f5a431"/><path d="m208 56 7.80065-3.90032a14.8328 14.8328 0 0 0 8.19935-13.26686v-14.83282h-36.58361a19.41638 19.41638 0 0 0 -19.41639 19.41639 19.41651 19.41651 0 0 0 2.04984 8.68328l5.95016 11.90033h24z" fill="#b36f42"/><path d="m176 56 8-8a17.88853 17.88853 0 0 0 24 8v16a16 16 0 0 1 -16 16 16 16 0 0 1 -16-16z" fill="#ffceb6"/><path d="m368 336v-14.05891a33.94109 33.94109 0 0 1 33.94109-33.94109h.00005a33.9411 33.9411 0 0 0 24-9.94112l14.05886-14.05888v32a40 40 0 0 1 -40 40z" fill="#f0d9b4"/><circle cx="312" cy="248" fill="#f7c04a" r="64"/><path d="m136.72727 175.41818 38.02273-30.41818 17.25 23 48 24 19.88057 4.97014a16 16 0 0 1 12.11943 15.52228v21.85073a5.65685 5.65685 0 0 1 -5.65685 5.65685 5.65684 5.65684 0 0 1 -4-1.65685l-14.34315-14.34315h-16l-54.04448-12.00988a48 48 0 0 1 -28.64652-18.95755z" fill="#ffceb6"/><path d="m487.99609 343.99414h-34.15918a49.72467 49.72467 0 0 0 -14.6372-20.35547 47.71782 47.71782 0 0 0 8.79638-27.64453v-32a8.00009 8.00009 0 0 0 -13.65722-5.65625l-14.0586 14.05859a25.768 25.768 0 0 1 -18.34277 7.59766 42.00772 42.00772 0 0 0 -40.74072 32h-16.2793a71.97972 71.97972 0 0 0 -32.92139-136c-2.04345 0-4.07324.09937-6.08984.2688l-47.415-80.60474a48.18459 48.18459 0 0 0 -41.37207-23.66406h-1.123v-11.05493l3.37882-1.68921a22.70791 22.70791 0 0 0 12.62109-20.42285v-14.833a8.00039 8.00039 0 0 0 -8-8h-36.583a27.4173 27.4173 0 0 0 -24.52247 39.67871l5.10547 10.21v6.11133h-15.502a64.1406 64.1406 0 0 0 -55.56738 32.248l-29.18941 51.08105a149.8285 149.8285 0 0 0 -9.7539 128.123l29.02734 75.47176-69.59174 100.52243a7.99722 7.99722 0 0 0 -1.42286 4.55371v24a8.00039 8.00039 0 0 0 8 8h80a8.00039 8.00039 0 0 0 8-8v-16a8.00235 8.00235 0 0 0 -2.34277-5.65723l-18.63384-18.63281 51.43847-57.15332a68.31626 68.31626 0 0 0 14.65625-65.335l-7.95606-26.52344 24.73242 34.00684 12.93946-9.41016-52.36426-72a8.00008 8.00008 0 0 0 -14.13281 7.00398l21.457 71.52148a52.3214 52.3214 0 0 1 -11.22461 50.03321l-54.977 61.08545-32.28247 9.22338 59.26733-85.60864a7.99847 7.99847 0 0 0 .88965-7.42578l-30.5459-79.41995a133.3378 133.3378 0 0 1 -8.20947-61.708h100.25707a56.0632 56.0632 0 0 0 11.2522 3.79981l.84155.187-.21753.43506a7.99945 7.99945 0 0 0 .57813 8.13183l56 80.88965 13.15429-9.10742-53.09912-76.70117 36.78662 8.1748a7.97377 7.97377 0 0 0 1.73535.19043h9.79712a71.974 71.974 0 0 0 37.2815 80h-3.07862a76.10644 76.10644 0 0 0 -70.47534 47.60352 8.01121 8.01121 0 0 1 -5.52466-7.60352v-16h-16v16a24.03958 24.03958 0 0 0 17.13648 22.99463 76.10042 76.10042 0 0 0 -1.13648 13.00537 92.57783 92.57783 0 0 0 18.40039 55.2002l5.59961 7.46679v37.333a8.00039 8.00039 0 0 0 8 8h24a8.00074 8.00074 0 0 0 7.35352-4.84863l11.63623-27.15137h74.02051l11.63623 27.15137a8.00074 8.00074 0 0 0 7.35351 4.84863h24a8.00039 8.00039 0 0 0 8-8v-24h7.208a57.94714 57.94714 0 0 0 54.96-40h9.832a24.0275 24.0275 0 0 0 24-24v-48a8.00039 8.00039 0 0 0 -8-7.99999zm-392 131.31348v4.68652h-64v-9.96533l45.67139-13.04881zm99.05567-363.31348h-6.11133l-3.21021-6.42041 6.26587-6.26611 6.26587 6.26611zm4.94433-40a8 8 0 0 1 -16 0v-11.63086a26.12957 26.12957 0 0 0 16 5.5332zm-26.1914 45.50562 1.80859 3.61743-1.84717 9.2373-5.49243-7.32348zm12.87793 29.85864 3.87207-19.36426h2.88281l5.874 29.37109-3.02124 3.02173-9.8-13.06714zm38.79175 11.56689 20.46263 26.30835-3.14892-.78735-24.05908-12.02954zm44.23315 30.81006-16.90845-21.73877 20.18335-16.14673 16.35158 27.79761a71.58121 71.58121 0 0 0 -19.62648 10.08789zm-52.58838-101.74121a32.12174 32.12174 0 0 1 27.58106 15.77637l20.08642 34.14649-21.81128 17.449-12.66479-16.283a7.99966 7.99966 0 0 0 -13.46973 1.333l-3.28711 6.57421-5.1748-25.873 1.80859-3.61743 8.15137 8.15161 11.31445-11.31446-23.20068-23.2007a24.19886 24.19886 0 0 0 3.41259-3.14209zm-29.706-56h28.583v6.833a6.79427 6.79427 0 0 1 -3.77636 6.11133l-7.80078 3.89942.00024.00049-.00122.00049a9.88671 9.88671 0 0 1 -13.2666-4.42285 8.00106 8.00106 0 0 0 -12.8125-2.07911l-2.27246 2.27247a11.3023 11.3023 0 0 1 -.07032-1.19825 11.43047 11.43047 0 0 1 11.41695-11.41699zm-105.78326 131.2666 29.18946-51.08105a48.10474 48.10474 0 0 1 41.6748-24.18555h21.63286a24.19893 24.19893 0 0 0 3.4126 3.14209l-18.96392 18.96387-8.1792-10.90576-12.80078 9.59966 26.09815 34.79736-25.37061 20.29634-11.81738-16.54395-13.01953 9.30078 29.30957 41.03223c.56494.791 1.15332 1.56054 1.75513 2.31738h-77.2107a133.94481 133.94481 0 0 1 14.28955-36.7334zm98.05762 40.91406a39.93327 39.93327 0 0 1 -23.87207-15.7978l-8.179-11.45044 25.66163-20.52929 12.29764 16.39673a8.00038 8.00038 0 0 0 2.82227 2.35546l48 24a8.02583 8.02583 0 0 0 1.63769.60547l19.88184 4.97168a7.98717 7.98717 0 0 1 6.05859 7.76074v16.19336l-10.34277-10.34375a8.00235 8.00235 0 0 0 -5.65723-2.34277h-15.12209zm76.30859 43.81934c0-1.50879.06543-3.00976.1836-4.50195l.50293.50293a13.65738 13.65738 0 0 0 23.31347-9.65723v-21.85059a23.97318 23.97318 0 0 0 -1.813-9.12451 55.99458 55.99458 0 1 1 -22.187 44.63135zm224 152a8.00916 8.00916 0 0 1 -8 8h-16a7.99987 7.99987 0 0 0 -7.84472 6.43164 41.87022 41.87022 0 0 1 -40.94727 33.56836h-15.208a8.00039 8.00039 0 0 0 -8 8v24h-10.72462l-21.92187-51.15137-14.707 6.30274 5.50635 12.84863h-60.3057l5.50635-12.84863-14.707-6.30274-21.92191 51.15137h-10.72461v-32a8.0033 8.0033 0 0 0 -1.59961-4.7998l-7.19921-9.59961a76.474 76.474 0 0 1 -15.20118-45.60059 60.06812 60.06812 0 0 1 60-60h84v16h16v-22.05859a25.97135 25.97135 0 0 1 25.94141-25.94141 41.66634 41.66634 0 0 0 29.65723-12.28414l.40136-.40137v12.68555a32.03667 32.03667 0 0 1 -32 32v16a47.7211 47.7211 0 0 0 27.85059-8.94311 34.00849 34.00849 0 0 1 12.38867 18.88354 7.99867 7.99867 0 0 0 7.76074 6.05957h32z"/><circle cx="407.997" cy="359.995" r="8"/><path d="m331.99609 343.99414h-56a20 20 0 1 0 0 40h56a20 20 0 0 0 0-40zm0 24h-56a4 4 0 0 1 0-8h56a4 4 0 0 1 0 8z"/><path d="m178.7334 382.93652-10.667 80a7.98183 7.98183 0 0 0 -.07032 1.05762v24a8.00039 8.00039 0 0 0 8 8h32v-16h-24v-10.584l18.97071-7.58789-5.94141-14.85547-11.29028 4.51587 8.85766-66.43091z"/><path d="m319.99609 291.99414v-16.0498a16.97219 16.97219 0 0 0 3.13477-33.41211l-18.38867-4.59668a.98546.98546 0 0 1 .23926-1.94141h31.01464v-16h-16v-16h-16v16.04986a16.97275 16.97275 0 0 0 -3.13476 33.41308l18.38867 4.59663a.98491.98491 0 0 1 -.23828 1.94043h-31.01563v16h16v16z"/></svg>